<?xml version="1.0" encoding="UTF-8" standalone="no"?>
<!-- Created with Inkscape (http://www.inkscape.org/) -->

<svg
   xmlns:dc="http://purl.org/dc/elements/1.1/"
   xmlns:cc="http://creativecommons.org/ns#"
   xmlns:rdf="http://www.w3.org/1999/02/22-rdf-syntax-ns#"
   xmlns:svg="http://www.w3.org/2000/svg"
   xmlns="http://www.w3.org/2000/svg"
   xmlns:sodipodi="http://sodipodi.sourceforge.net/DTD/sodipodi-0.dtd"
   xmlns:inkscape="http://www.inkscape.org/namespaces/inkscape"
   width="899.51172"
   height="422.95547"
   viewBox="0 0 237.99581 111.90697"
   version="1.1"
   id="svg5128"
   inkscape:version="0.92.4 (f8dce91, 2019-08-02)"
   sodipodi:docname="logo.svg">
  <defs
     id="defs5122" />
  <sodipodi:namedview
     id="base"
     pagecolor="#ffffff"
     bordercolor="#666666"
     borderopacity="1.0"
     inkscape:pageopacity="0.0"
     inkscape:pageshadow="2"
     inkscape:zoom="0.98994949"
     inkscape:cx="342.68124"
     inkscape:cy="90.242825"
     inkscape:document-units="mm"
     inkscape:current-layer="text5132"
     showgrid="false"
     units="px"
     fit-margin-top="0"
     fit-margin-left="0"
     fit-margin-right="0"
     fit-margin-bottom="0"
     inkscape:window-width="1853"
     inkscape:window-height="1025"
     inkscape:window-x="67"
     inkscape:window-y="27"
     inkscape:window-maximized="1" />
  <metadata
     id="metadata5125">
    <rdf:RDF>
      <cc:Work
         rdf:about="">
        <dc:format>image/svg+xml</dc:format>
        <dc:type
           rdf:resource="http://purl.org/dc/dcmitype/StillImage" />
        <dc:title></dc:title>
      </cc:Work>
    </rdf:RDF>
  </metadata>
  <g
     inkscape:label="Layer 1"
     inkscape:groupmode="layer"
     id="layer1"
     transform="translate(2.9957563,-172.98695)">
    <g
       aria-label="Critical Habitats"
       transform="scale(0.9938151,1.0062234)"
       style="font-style:normal;font-variant:normal;font-weight:normal;font-stretch:normal;font-size:30.27877617px;line-height:1.25;font-family:Chilanka;-inkscape-font-specification:'Chilanka, Normal';font-variant-ligatures:normal;font-variant-caps:normal;font-variant-numeric:normal;font-feature-settings:normal;text-align:start;letter-spacing:0px;word-spacing:0px;writing-mode:lr-tb;text-anchor:start;fill:#0d1f22;fill-opacity:1;stroke:none;stroke-width:0.75696939"
       id="text5132">
      <path
         d="m 75.269208,237.25756 q 0.236554,0.32527 0.162631,0.70967 -0.07392,0.3844 -0.41397,0.62095 -0.325261,0.22177 -0.709662,0.14785 -4.805004,-0.90186 -8.604653,1.33061 -2.735156,1.61153 -4.228404,4.40582 -1.478462,2.7943 -1.1532,5.55902 0.325261,2.76473 2.454248,4.37625 3.814434,2.89779 11.679855,1.03493 0.384401,-0.0887 0.724447,0.11827 0.340047,0.20699 0.428754,0.59139 0.08871,0.3844 -0.118277,0.72445 -0.206984,0.34004 -0.591385,0.42875 -8.752499,2.06985 -13.276595,-1.36019 -2.794295,-2.1142 -3.208264,-5.5738 -0.399185,-3.47439 1.345401,-6.77136 1.75937,-3.29697 4.982419,-5.1894 4.405819,-2.58731 9.920485,-1.55239 0.384401,0.0591 0.60617,0.39918 z"
         style="font-style:normal;font-variant:normal;font-weight:normal;font-stretch:normal;font-size:30.27891731px;font-family:Chilanka;-inkscape-font-specification:'Chilanka, Normal';font-variant-ligatures:normal;font-variant-caps:normal;font-variant-numeric:normal;font-feature-settings:normal;text-align:start;letter-spacing:-1.57162499px;writing-mode:lr-tb;text-anchor:start;fill:#0d1f22;fill-opacity:1;stroke-width:0.75696939"
         id="path6607" />
      <path
         d="m 77.068479,257.00983 q -0.05914,-0.2957 0.04435,-0.63574 0.118277,-0.35483 0.147846,-0.72445 0.02957,-0.3844 0.177416,-2.02549 0.147846,-1.6411 0.05914,-4.9085 -0.07392,-3.28219 -0.266123,-3.97706 -0.177416,-0.70967 0.02957,-1.04971 0.206985,-0.35483 0.591385,-0.45833 0.384401,-0.10349 0.724447,0.1035 0.340046,0.20698 0.443539,0.59138 0.310477,1.19756 0.3844,3.77008 2.143771,-4.2284 5.839928,-4.70151 0.3844,-0.0444 0.694877,0.20698 0.325262,0.23656 0.369616,0.63574 0.05914,0.3844 -0.1922,0.70967 -0.236554,0.31047 -0.635739,0.35483 -3.755295,0.47311 -5.529451,6.727 -0.428754,1.49325 -0.650523,3.13434 -0.05914,1.13842 -0.103493,1.59674 -0.04435,0.44354 0.02957,0.62096 0.08871,0.17741 -0.192201,0.47311 -0.280908,0.2809 -0.502677,0.36961 -0.650524,0.25134 -1.020139,-0.13306 -0.369616,-0.39918 -0.443539,-0.68009 z"
         style="font-style:normal;font-variant:normal;font-weight:normal;font-stretch:normal;font-size:30.27891731px;font-family:Chilanka;-inkscape-font-specification:'Chilanka, Normal';font-variant-ligatures:normal;font-variant-caps:normal;font-variant-numeric:normal;font-feature-settings:normal;text-align:start;letter-spacing:-1.57162499px;writing-mode:lr-tb;text-anchor:start;fill:#0d1f22;fill-opacity:1;stroke-width:0.75696939"
         id="path6609" />
      <path
         d="m 89.837942,237.65675 q 0.5766,0.0148 0.975785,0.35483 0.887078,0.7688 0.635739,1.74459 -0.236554,0.961 -1.212339,1.30104 -1.626309,0.81316 -2.291617,-0.39918 -0.517462,-0.961 0.206984,-1.99593 0.724447,-1.03492 1.685448,-1.00535 z m -0.739231,20.28451 q -0.384401,0.11828 -0.739232,-0.0739 -0.340046,-0.1922 -0.458323,-0.56182 -0.103493,-0.36962 0.01478,-0.68009 0.295693,-0.66531 0.369616,-4.96764 0.08871,-4.30232 0.04435,-7.77671 0,-0.39919 0.266123,-0.6801 0.280908,-0.29569 0.665308,-0.29569 0.399185,-0.0148 0.680093,0.26613 0.295693,0.2809 0.295693,0.68009 0.05914,3.50396 0.01478,5.85471 -0.04435,2.35076 -0.05914,3.34133 -0.01479,0.99057 -0.07392,2.35075 -0.08871,2.26205 -1.020139,2.54296 z"
         style="font-style:normal;font-variant:normal;font-weight:normal;font-stretch:normal;font-size:30.27891731px;font-family:Chilanka;-inkscape-font-specification:'Chilanka, Normal';font-variant-ligatures:normal;font-variant-caps:normal;font-variant-numeric:normal;font-feature-settings:normal;text-align:start;letter-spacing:-1.57162499px;writing-mode:lr-tb;text-anchor:start;fill:#0d1f22;fill-opacity:1;stroke-width:0.75696939"
         id="path6611" />
      <path
         d="m 90.750135,244.93079 q -0.280908,-0.2957 -0.280908,-0.6801 0,-0.39918 0.280908,-0.68009 0.295693,-0.28091 0.680093,-0.28091 l 2.97171,0.0148 q 0.01479,-0.32526 0.08871,-2.29162 0.08871,-1.98114 0.02957,-3.57788 -0.01478,-0.39918 0.266124,-0.68009 0.280908,-0.2957 0.665308,-0.31048 0.399185,-0.0148 0.680093,0.26612 0.295692,0.26613 0.310477,0.66531 0.05914,1.65588 -0.02957,3.6518 -0.07392,1.99593 -0.08871,2.29162 l 2.232479,0.0148 q 0.399185,0 0.680093,0.29569 0.280907,0.28091 0.280907,0.68009 0,0.3844 -0.295692,0.66531 -0.280908,0.28091 -0.665308,0.28091 -1.153201,0 -2.291618,-0.0148 -0.206984,7.4071 0.694878,10.03877 0.325262,0.97578 0.694877,1.18277 0.384401,0.1922 0.502678,0.5766 0.118277,0.3844 -0.07392,0.73923 -0.177416,0.34004 -0.561816,0.45832 -0.384401,0.11828 -0.739232,-0.0591 -1.892432,-1.02014 -2.306402,-5.5738 -0.251338,-2.97171 -0.133061,-7.37753 -1.463678,0 -2.912572,-0.0148 -0.399185,0 -0.680093,-0.2809 z"
         style="font-style:normal;font-variant:normal;font-weight:normal;font-stretch:normal;font-size:30.27891731px;font-family:Chilanka;-inkscape-font-specification:'Chilanka, Normal';font-variant-ligatures:normal;font-variant-caps:normal;font-variant-numeric:normal;font-feature-settings:normal;text-align:start;letter-spacing:-1.57162499px;writing-mode:lr-tb;text-anchor:start;fill:#0d1f22;fill-opacity:1;stroke-width:0.75696939"
         id="path6613" />
      <path
         d="m 103.01692,237.65675 q 0.5766,0.0148 0.97579,0.35483 0.88707,0.7688 0.63573,1.74459 -0.23655,0.961 -1.21234,1.30104 -1.6263,0.81316 -2.29161,-0.39918 -0.51746,-0.961 0.20698,-1.99593 0.72445,-1.03492 1.68545,-1.00535 z m -0.73923,20.28451 q -0.3844,0.11828 -0.73923,-0.0739 -0.34005,-0.1922 -0.45833,-0.56182 -0.10349,-0.36962 0.0148,-0.68009 0.29569,-0.66531 0.36961,-4.96764 0.0887,-4.30232 0.0444,-7.77671 0,-0.39919 0.26612,-0.6801 0.28091,-0.29569 0.66531,-0.29569 0.39918,-0.0148 0.68009,0.26613 0.29569,0.2809 0.29569,0.68009 0.0591,3.50396 0.0148,5.85471 -0.0444,2.35076 -0.0591,3.34133 -0.0148,0.99057 -0.0739,2.35075 -0.0887,2.26205 -1.02014,2.54296 z"
         style="font-style:normal;font-variant:normal;font-weight:normal;font-stretch:normal;font-size:30.27891731px;font-family:Chilanka;-inkscape-font-specification:'Chilanka, Normal';font-variant-ligatures:normal;font-variant-caps:normal;font-variant-numeric:normal;font-feature-settings:normal;text-align:start;letter-spacing:-1.57162499px;writing-mode:lr-tb;text-anchor:start;fill:#0d1f22;fill-opacity:1;stroke-width:0.75696939"
         id="path6615" />
      <path
         d="m 117.13179,244.20634 q 0.1922,0.35483 0.0739,0.73923 -0.10349,0.36962 -0.45832,0.56182 -0.35484,0.1922 -0.72445,0.0739 -2.82387,-0.85751 -5.04156,0.72445 -1.70023,1.19755 -2.51339,3.32654 -0.79837,2.12898 -0.2809,3.87357 0.51746,1.7298 2.14377,2.3064 2.14377,0.75402 5.75122,-0.56181 0.36961,-0.14785 0.72444,0.0296 0.36962,0.16263 0.50268,0.53224 0.13306,0.36962 -0.0444,0.73923 -0.16263,0.36962 -0.53225,0.50268 -4.24319,1.55239 -6.91921,0.62096 -2.67601,-0.94622 -3.43003,-3.45961 -0.73923,-2.52817 0.28091,-5.23376 1.02014,-2.70558 3.20826,-4.25797 2.9865,-2.1142 6.69744,-0.97578 0.3844,0.10349 0.56182,0.45832 z"
         style="font-style:normal;font-variant:normal;font-weight:normal;font-stretch:normal;font-size:30.27891731px;font-family:Chilanka;-inkscape-font-specification:'Chilanka, Normal';font-variant-ligatures:normal;font-variant-caps:normal;font-variant-numeric:normal;font-feature-settings:normal;text-align:start;letter-spacing:-1.57162499px;writing-mode:lr-tb;text-anchor:start;fill:#0d1f22;fill-opacity:1;stroke-width:0.75696939"
         id="path6617" />
      <path
         d="m 131.83804,247.53288 q 0.11827,0.44354 -0.0887,1.12363 -0.53225,5.60338 0.20698,8.32375 0.10349,0.3844 -0.10349,0.72444 -0.1922,0.34005 -0.5766,0.44354 -0.36962,0.1035 -0.72445,-0.10349 -0.34004,-0.1922 -0.44354,-0.5766 -0.45832,-1.71502 -0.48789,-4.31711 -1.41932,2.27683 -3.01606,3.56309 -0.97579,0.78359 -2.01071,0.88708 -1.0645,0.31048 -2.1142,0.0739 -1.03493,-0.23656 -1.8333,-0.99057 -1.55238,-1.46368 -1.84808,-4.25798 -0.2809,-2.80908 1.00536,-5.33725 1.5376,-3.01606 4.67194,-4.02142 2.74994,-0.90186 4.9085,0.25134 2.17334,1.1532 2.45425,4.21362 z m -1.92201,0.13306 q -0.1922,-1.99592 -1.5376,-2.70558 -1.33061,-0.70967 -3.31175,-0.0591 -2.36554,0.75401 -3.47439,2.92735 -1.10885,2.15856 -0.88708,4.3319 0.22177,2.15855 1.16799,3.06042 0.961,0.88707 2.27683,0.50267 0.11828,-0.0296 0.35483,-0.0443 0.25134,-0.0148 1.00535,-0.60617 1.99593,-1.56717 3.71095,-5.26333 0.44353,-0.961 0.63574,-1.5376 0.0296,-0.29569 0.0591,-0.60617 z"
         style="font-style:normal;font-variant:normal;font-weight:normal;font-stretch:normal;font-size:30.27891731px;font-family:Chilanka;-inkscape-font-specification:'Chilanka, Normal';font-variant-ligatures:normal;font-variant-caps:normal;font-variant-numeric:normal;font-feature-settings:normal;text-align:start;letter-spacing:-1.57162499px;writing-mode:lr-tb;text-anchor:start;fill:#0d1f22;fill-opacity:1;stroke-width:0.75696939"
         id="path6619" />
      <path
         d="m 134.21391,236.34092 q 0.29569,-0.26613 0.68009,-0.25134 0.39918,0.0148 0.66531,0.31048 0.28091,0.29569 0.25134,0.69487 -0.73923,17.6085 -0.41397,19.79662 0.0591,0.3844 -0.17742,0.70966 -0.23655,0.32526 -0.63574,0.3844 -0.3844,0.0591 -0.70966,-0.17741 -0.31048,-0.25134 -0.36962,-0.63574 -0.35483,-2.36554 0.39919,-20.16623 0.0148,-0.39919 0.31048,-0.66531 z"
         style="font-style:normal;font-variant:normal;font-weight:normal;font-stretch:normal;font-size:30.27891731px;font-family:Chilanka;-inkscape-font-specification:'Chilanka, Normal';font-variant-ligatures:normal;font-variant-caps:normal;font-variant-numeric:normal;font-feature-settings:normal;text-align:start;letter-spacing:-1.57162499px;writing-mode:lr-tb;text-anchor:start;fill:#0d1f22;fill-opacity:1;stroke-width:0.75696939"
         id="path6621" />
      <path
         d="m 155.52443,236.65139 q 0.28091,-0.29569 0.68009,-0.29569 0.39919,0 0.6801,0.28091 0.2809,0.28091 0.29569,0.66531 l 0.1922,20.01838 q 0,0.3844 -0.28091,0.66531 -0.28091,0.2957 -0.68009,0.2957 -0.3844,0.0148 -0.68009,-0.26613 -0.28091,-0.28091 -0.28091,-0.68009 l -0.0887,-8.87078 -9.43259,-0.11827 0.0887,9.15168 q 0,0.39918 -0.28091,0.68009 -0.28091,0.2957 -0.6801,0.2957 -0.3844,0 -0.68009,-0.28091 -0.28091,-0.28091 -0.28091,-0.66531 l -0.1922,-20.01839 q 0,-0.39918 0.28091,-0.68009 0.28091,-0.28091 0.66531,-0.28091 0.39918,-0.0148 0.68009,0.26613 0.2957,0.2809 0.2957,0.68009 0,0 0.0887,8.92991 l 9.4326,0.11828 q -0.0444,-4.6128 -0.0887,-9.22561 -0.0148,-0.3844 0.26612,-0.66531 z"
         style="font-style:normal;font-variant:normal;font-weight:normal;font-stretch:normal;font-size:30.27891731px;font-family:Chilanka;-inkscape-font-specification:'Chilanka, Normal';font-variant-ligatures:normal;font-variant-caps:normal;font-variant-numeric:normal;font-feature-settings:normal;text-align:start;letter-spacing:-1.57162499px;writing-mode:lr-tb;text-anchor:start;fill:#0d1f22;fill-opacity:1;stroke-width:0.75696939"
         id="path6623" />
      <path
         d="m 171.85699,247.53288 q 0.11828,0.44354 -0.0887,1.12363 -0.53224,5.60338 0.20699,8.32375 0.10349,0.3844 -0.10349,0.72444 -0.19221,0.34005 -0.57661,0.44354 -0.36961,0.1035 -0.72444,-0.10349 -0.34005,-0.1922 -0.44354,-0.5766 -0.45832,-1.71502 -0.48789,-4.31711 -1.41933,2.27683 -3.01607,3.56309 -0.97578,0.78359 -2.01071,0.88708 -1.06449,0.31048 -2.1142,0.0739 -1.03492,-0.23656 -1.83329,-0.99057 -1.55239,-1.46368 -1.84808,-4.25798 -0.28091,-2.80908 1.00535,-5.33725 1.5376,-3.01606 4.67195,-4.02142 2.74994,-0.90186 4.90849,0.25134 2.17334,1.1532 2.45425,4.21362 z m -1.922,0.13306 q -0.1922,-1.99592 -1.5376,-2.70558 -1.33062,-0.70967 -3.31176,-0.0591 -2.36554,0.75401 -3.47439,2.92735 -1.10884,2.15856 -0.88707,4.3319 0.22177,2.15855 1.16798,3.06042 0.961,0.88707 2.27683,0.50267 0.11828,-0.0296 0.35484,-0.0443 0.25133,-0.0148 1.00535,-0.60617 1.99592,-1.56717 3.71094,-5.26333 0.44354,-0.961 0.63574,-1.5376 0.0296,-0.29569 0.0591,-0.60617 z"
         style="font-style:normal;font-variant:normal;font-weight:normal;font-stretch:normal;font-size:30.27891731px;font-family:Chilanka;-inkscape-font-specification:'Chilanka, Normal';font-variant-ligatures:normal;font-variant-caps:normal;font-variant-numeric:normal;font-feature-settings:normal;text-align:start;letter-spacing:-1.57162499px;writing-mode:lr-tb;text-anchor:start;fill:#0d1f22;fill-opacity:1;stroke-width:0.75696939"
         id="path6625" />
      <path
         d="m 173.80411,250.17933 q 0.0887,-2.63166 0.16263,-9.10733 l 0.0444,-3.62224 q 0.0148,-0.39918 0.29569,-0.6653 0.28091,-0.28091 0.66531,-0.28091 0.39918,0 0.68009,0.29569 0.29569,0.28091 0.28091,0.68009 l -0.0444,3.60745 q -0.0296,3.08999 -0.0739,4.92328 3.00128,-3.01606 5.82514,-3.19348 2.83865,-0.17741 4.55367,1.98114 1.7298,2.14378 1.95157,5.1007 0.23655,2.94214 -1.28626,5.18941 -1.922,2.83864 -5.76601,2.98649 -3.44482,0.13306 -5.55902,-3.34133 -0.0739,1.28627 -0.16263,2.05507 -0.0739,0.75401 -0.68009,0.94621 -0.36962,0.11828 -0.73923,-0.0739 -0.35483,-0.20698 -0.47311,-0.59138 -0.11828,-0.3844 -0.0591,-1.28627 0.0591,-0.90186 0.16263,-2.17334 0.11828,-1.27148 0.10349,-2.18812 0,-0.93143 0.11828,-1.24191 z m 1.95157,-1.19756 q -0.0148,0.69488 -0.0296,1.34541 0.1035,0.2809 0.31048,0.90186 1.71502,5.04156 4.92328,4.92328 2.92736,-0.10349 4.30233,-2.14377 1.1532,-1.70023 0.97578,-4.00664 -0.17741,-2.32118 -1.40454,-3.844 -1.22712,-1.5376 -3.00128,-1.43411 -2.79429,0.1922 -6.07648,4.25797 z"
         style="font-style:normal;font-variant:normal;font-weight:normal;font-stretch:normal;font-size:30.27891731px;font-family:Chilanka;-inkscape-font-specification:'Chilanka, Normal';font-variant-ligatures:normal;font-variant-caps:normal;font-variant-numeric:normal;font-feature-settings:normal;text-align:start;letter-spacing:-1.57162499px;writing-mode:lr-tb;text-anchor:start;fill:#0d1f22;fill-opacity:1;stroke-width:0.75696939"
         id="path6627" />
      <path
         d="m 191.68905,237.65675 q 0.5766,0.0148 0.97579,0.35483 0.88707,0.7688 0.63573,1.74459 -0.23655,0.961 -1.21233,1.30104 -1.62631,0.81316 -2.29162,-0.39918 -0.51746,-0.961 0.20698,-1.99593 0.72445,-1.03492 1.68545,-1.00535 z m -0.73923,20.28451 q -0.3844,0.11828 -0.73923,-0.0739 -0.34005,-0.1922 -0.45833,-0.56182 -0.10349,-0.36962 0.0148,-0.68009 0.29569,-0.66531 0.36961,-4.96764 0.0887,-4.30232 0.0444,-7.77671 0,-0.39919 0.26612,-0.6801 0.28091,-0.29569 0.66531,-0.29569 0.39918,-0.0148 0.68009,0.26613 0.2957,0.2809 0.2957,0.68009 0.0591,3.50396 0.0148,5.85471 -0.0443,2.35076 -0.0591,3.34133 -0.0148,0.99057 -0.0739,2.35075 -0.0887,2.26205 -1.02014,2.54296 z"
         style="font-style:normal;font-variant:normal;font-weight:normal;font-stretch:normal;font-size:30.27891731px;font-family:Chilanka;-inkscape-font-specification:'Chilanka, Normal';font-variant-ligatures:normal;font-variant-caps:normal;font-variant-numeric:normal;font-feature-settings:normal;text-align:start;letter-spacing:-1.57162499px;writing-mode:lr-tb;text-anchor:start;fill:#0d1f22;fill-opacity:1;stroke-width:0.75696939"
         id="path6629" />
      <path
         d="m 192.60124,244.93079 q -0.28091,-0.2957 -0.28091,-0.6801 0,-0.39918 0.28091,-0.68009 0.29569,-0.28091 0.68009,-0.28091 l 2.97171,0.0148 q 0.0148,-0.32526 0.0887,-2.29162 0.0887,-1.98114 0.0296,-3.57788 -0.0148,-0.39918 0.26612,-0.68009 0.28091,-0.2957 0.66531,-0.31048 0.39919,-0.0148 0.68009,0.26612 0.2957,0.26613 0.31048,0.66531 0.0591,1.65588 -0.0296,3.6518 -0.0739,1.99593 -0.0887,2.29162 l 2.23248,0.0148 q 0.39919,0 0.6801,0.29569 0.2809,0.28091 0.2809,0.68009 0,0.3844 -0.29569,0.66531 -0.28091,0.28091 -0.66531,0.28091 -1.1532,0 -2.29161,-0.0148 -0.20699,7.4071 0.69487,10.03877 0.32527,0.97578 0.69488,1.18277 0.3844,0.1922 0.50268,0.5766 0.11828,0.3844 -0.0739,0.73923 -0.17742,0.34004 -0.56182,0.45832 -0.3844,0.11828 -0.73923,-0.0591 -1.89243,-1.02014 -2.3064,-5.5738 -0.25134,-2.97171 -0.13307,-7.37753 -1.46367,0 -2.91257,-0.0148 -0.39918,0 -0.68009,-0.2809 z"
         style="font-style:normal;font-variant:normal;font-weight:normal;font-stretch:normal;font-size:30.27891731px;font-family:Chilanka;-inkscape-font-specification:'Chilanka, Normal';font-variant-ligatures:normal;font-variant-caps:normal;font-variant-numeric:normal;font-feature-settings:normal;text-align:start;letter-spacing:-1.57162499px;writing-mode:lr-tb;text-anchor:start;fill:#0d1f22;fill-opacity:1;stroke-width:0.75696939"
         id="path6631" />
      <path
         d="m 214.24149,247.53288 q 0.11828,0.44354 -0.0887,1.12363 -0.53225,5.60338 0.20699,8.32375 0.10349,0.3844 -0.1035,0.72444 -0.1922,0.34005 -0.5766,0.44354 -0.36961,0.1035 -0.72444,-0.10349 -0.34005,-0.1922 -0.44354,-0.5766 -0.45833,-1.71502 -0.4879,-4.31711 -1.41932,2.27683 -3.01606,3.56309 -0.97578,0.78359 -2.01071,0.88708 -1.06449,0.31048 -2.1142,0.0739 -1.03492,-0.23656 -1.83329,-0.99057 -1.55239,-1.46368 -1.84808,-4.25798 -0.28091,-2.80908 1.00535,-5.33725 1.5376,-3.01606 4.67194,-4.02142 2.74995,-0.90186 4.9085,0.25134 2.17334,1.1532 2.45425,4.21362 z m -1.922,0.13306 q -0.1922,-1.99592 -1.5376,-2.70558 -1.33062,-0.70967 -3.31176,-0.0591 -2.36554,0.75401 -3.47439,2.92735 -1.10884,2.15856 -0.88708,4.3319 0.22177,2.15855 1.16799,3.06042 0.961,0.88707 2.27683,0.50267 0.11828,-0.0296 0.35483,-0.0443 0.25134,-0.0148 1.00536,-0.60617 1.99592,-1.56717 3.71094,-5.26333 0.44354,-0.961 0.63574,-1.5376 0.0296,-0.29569 0.0591,-0.60617 z"
         style="font-style:normal;font-variant:normal;font-weight:normal;font-stretch:normal;font-size:30.27891731px;font-family:Chilanka;-inkscape-font-specification:'Chilanka, Normal';font-variant-ligatures:normal;font-variant-caps:normal;font-variant-numeric:normal;font-feature-settings:normal;text-align:start;letter-spacing:-1.57162499px;writing-mode:lr-tb;text-anchor:start;fill:#0d1f22;fill-opacity:1;stroke-width:0.75696939"
         id="path6633" />
      <path
         d="m 213.64564,244.93079 q -0.2809,-0.2957 -0.2809,-0.6801 0,-0.39918 0.2809,-0.68009 0.2957,-0.28091 0.6801,-0.28091 l 2.97171,0.0148 q 0.0148,-0.32526 0.0887,-2.29162 0.0887,-1.98114 0.0296,-3.57788 -0.0148,-0.39918 0.26613,-0.68009 0.2809,-0.2957 0.6653,-0.31048 0.39919,-0.0148 0.6801,0.26612 0.29569,0.26613 0.31047,0.66531 0.0591,1.65588 -0.0296,3.6518 -0.0739,1.99593 -0.0887,2.29162 l 2.23248,0.0148 q 0.39918,0 0.68009,0.29569 0.28091,0.28091 0.28091,0.68009 0,0.3844 -0.2957,0.66531 -0.2809,0.28091 -0.6653,0.28091 -1.1532,0 -2.29162,-0.0148 -0.20699,7.4071 0.69488,10.03877 0.32526,0.97578 0.69487,1.18277 0.3844,0.1922 0.50268,0.5766 0.11828,0.3844 -0.0739,0.73923 -0.17742,0.34004 -0.56182,0.45832 -0.3844,0.11828 -0.73923,-0.0591 -1.89243,-1.02014 -2.3064,-5.5738 -0.25134,-2.97171 -0.13306,-7.37753 -1.46368,0 -2.91257,-0.0148 -0.39919,0 -0.6801,-0.2809 z"
         style="font-style:normal;font-variant:normal;font-weight:normal;font-stretch:normal;font-size:30.27891731px;font-family:Chilanka;-inkscape-font-specification:'Chilanka, Normal';font-variant-ligatures:normal;font-variant-caps:normal;font-variant-numeric:normal;font-feature-settings:normal;text-align:start;letter-spacing:-1.57162499px;writing-mode:lr-tb;text-anchor:start;fill:#0d1f22;fill-opacity:1;stroke-width:0.75696939"
         id="path6635" />
      <path
         d="m 236.20254,246.14313 q 0.0148,0.39918 -0.26612,0.69487 -0.26613,0.28091 -0.66531,0.2957 -0.39919,0 -0.68009,-0.26613 -1.04971,-1.00535 -2.49861,-1.56717 -1.43411,-0.5766 -2.60209,-0.59138 -3.10477,-0.0296 -3.66659,1.65588 -0.42875,1.28626 0.70966,2.32118 1.13842,1.03493 4.15448,0.79837 2.33598,-0.0739 3.5631,0.56182 1.22712,0.63574 1.80372,1.80372 0.59139,1.16799 0.32527,2.32119 -0.4879,2.15855 -2.67602,3.14912 -1.68545,0.7688 -3.54831,0.60617 -3.51874,-0.34004 -5.82515,-2.36554 -0.29569,-0.25134 -0.32526,-0.65052 -0.0148,-0.41397 0.23656,-0.70966 0.26612,-0.29569 0.6653,-0.31048 0.39919,-0.0296 0.69488,0.22177 1.84808,1.61152 4.45017,1.86286 2.61688,0.25134 3.90315,-1.13841 0.93143,-1.02014 0.3844,-2.14377 -0.69488,-1.38976 -3.29698,-1.27148 -2.5873,0.10349 -3.77008,-0.20699 -1.16798,-0.32526 -2.06984,-1.13841 -0.90187,-0.82794 -1.24191,-1.98114 -0.34005,-1.16799 0.0444,-2.33597 0.3844,-1.16799 1.28626,-1.84808 1.53761,-1.1532 3.63702,-1.12363 4.21362,0.0443 6.97835,2.6908 0.28091,0.26612 0.29569,0.66531 z"
         style="font-style:normal;font-variant:normal;font-weight:normal;font-stretch:normal;font-size:30.27891731px;font-family:Chilanka;-inkscape-font-specification:'Chilanka, Normal';font-variant-ligatures:normal;font-variant-caps:normal;font-variant-numeric:normal;font-feature-settings:normal;text-align:start;letter-spacing:-1.57162499px;writing-mode:lr-tb;text-anchor:start;fill:#0d1f22;fill-opacity:1;stroke-width:0.75696939"
         id="path6637" />
    </g>
    <path
       style="fill:#826131;stroke:#000000;stroke-width:0.26458332px;stroke-linecap:butt;stroke-linejoin:miter;stroke-opacity:1;fill-opacity:1"
       d="m 64.679226,227.50993 c 0,0 -10.423512,13.0962 -11.49259,16.83798 -1.069078,3.74177 -1.336349,11.75986 1.870885,15.23436 3.207234,3.47451 16.036173,5.07812 25.123335,5.07812 9.087165,0 11.759862,0.26727 17.372521,1.60362 5.612663,1.33635 16.570713,8.01808 37.417733,9.6217 20.84702,1.60362 25.12333,1.87089 25.12333,1.87089 0,0 -33.14142,5.34539 -47.3067,2.93996 -14.165285,-2.40542 -12.02713,-5.34539 -26.994222,-6.68173 -14.967095,-1.33635 -25.123335,-2.93997 -30.468726,-2.93997 -5.34539,0 45.168548,12.02713 16.837981,8.8199 -28.33057,-3.20724 -20.579756,-6.68174 -28.59784,-3.20724 -6.991828,1.98102 -12.421848,3.64819 -26.963014,7.95787 -3.511888,1.04085 4.433677,-5.21036 10.125033,-8.22514 9.039873,-4.78853 11.492589,-9.88897 11.492589,-9.88897 0,0 -20.847022,9.08716 -31.0032638,10.95805 l -10.156242,1.87089 c 0,0 22.9851788,-10.69078 32.6068818,-23.25245 9.621702,-12.56167 10.958052,-20.57976 12.561667,-33.94323 1.603619,-13.36348 1.336347,-13.36348 1.603619,-13.36348 h 0.267269 z"
       id="path5160"
       inkscape:connector-curvature="0"
       sodipodi:nodetypes="cscssscsssscsscscssscc" />
    <g
       id="g5261"
       style="fill:#436436;fill-opacity:1">
      <ellipse
         ry="21.114292"
         rx="32.473251"
         cy="198.91209"
         cx="47.173069"
         id="path5162"
         style="fill:#436436;fill-opacity:1;stroke:none;stroke-width:0.26458332" />
      <ellipse
         ry="21.114292"
         rx="32.473251"
         cy="214.41371"
         cx="36.883198"
         id="path5162-0"
         style="fill:#436436;fill-opacity:1;stroke:none;stroke-width:0.26458332" />
      <ellipse
         ry="21.114292"
         rx="32.473251"
         cy="195.97212"
         cx="84.991707"
         id="path5162-3"
         style="fill:#436436;fill-opacity:1;stroke:none;stroke-width:0.26458332" />
      <ellipse
         ry="21.114292"
         rx="32.473251"
         cy="211.47377"
         cx="87.129868"
         id="path5162-2"
         style="fill:#436436;fill-opacity:1;stroke:none;stroke-width:0.26458332" />
      <ellipse
         ry="21.114292"
         rx="32.473251"
         cy="201.58478"
         cx="161.96535"
         id="path5162-1"
         style="fill:#436436;fill-opacity:1;stroke:none;stroke-width:0.26458332" />
      <ellipse
         ry="21.114292"
         rx="32.473251"
         cy="210.40468"
         cx="143.25645"
         id="path5162-7"
         style="fill:#436436;fill-opacity:1;stroke:none;stroke-width:0.26458332" />
      <ellipse
         ry="21.114292"
         rx="32.473251"
         cy="207.19743"
         cx="65.748306"
         id="path5162-5"
         style="fill:#436436;fill-opacity:1;stroke:none;stroke-width:0.26458332" />
      <ellipse
         ry="21.114292"
         rx="32.473251"
         cy="194.10124"
         cx="126.15122"
         id="path5162-6"
         style="fill:#436436;fill-opacity:1;stroke:none;stroke-width:0.26458332" />
    </g>
  </g>
</svg>
