<?xml version="1.0" encoding="UTF-8" standalone="no"?>
<!-- Created with Inkscape (http://www.inkscape.org/) -->

<svg
   xmlns:dc="http://purl.org/dc/elements/1.1/"
   xmlns:cc="http://creativecommons.org/ns#"
   xmlns:rdf="http://www.w3.org/1999/02/22-rdf-syntax-ns#"
   xmlns:svg="http://www.w3.org/2000/svg"
   xmlns="http://www.w3.org/2000/svg"
   xmlns:sodipodi="http://sodipodi.sourceforge.net/DTD/sodipodi-0.dtd"
   xmlns:inkscape="http://www.inkscape.org/namespaces/inkscape"
   width="899.51172"
   height="422.95547"
   viewBox="0 0 237.99581 111.90697"
   version="1.1"
   id="svg5128"
   inkscape:version="0.92.4 (f8dce91, 2019-08-02)"
   sodipodi:docname="logo.svg">
  <defs
     id="defs5122" />
  <sodipodi:namedview
     id="base"
     pagecolor="#ffffff"
     bordercolor="#666666"
     borderopacity="1.0"
     inkscape:pageopacity="0.0"
     inkscape:pageshadow="2"
     inkscape:zoom="0.98994949"
     inkscape:cx="342.68124"
     inkscape:cy="90.242825"
     inkscape:document-units="mm"
     inkscape:current-layer="layer1"
     showgrid="false"
     units="px"
     fit-margin-top="0"
     fit-margin-left="0"
     fit-margin-right="0"
     fit-margin-bottom="0"
     inkscape:window-width="1853"
     inkscape:window-height="1025"
     inkscape:window-x="67"
     inkscape:window-y="27"
     inkscape:window-maximized="1" />
  <metadata
     id="metadata5125">
    <rdf:RDF>
      <cc:Work
         rdf:about="">
        <dc:format>image/svg+xml</dc:format>
        <dc:type
           rdf:resource="http://purl.org/dc/dcmitype/StillImage" />
        <dc:title></dc:title>
      </cc:Work>
    </rdf:RDF>
  </metadata>
  <g
     inkscape:label="Layer 1"
     inkscape:groupmode="layer"
     id="layer1"
     transform="translate(2.9957563,-172.98695)">
    <text
       xml:space="preserve"
       style="font-style:normal;font-variant:normal;font-weight:normal;font-stretch:normal;font-size:30.27877617px;line-height:1.25;font-family:Chilanka;-inkscape-font-specification:'Chilanka, Normal';font-variant-ligatures:normal;font-variant-caps:normal;font-variant-numeric:normal;font-feature-settings:normal;text-align:start;letter-spacing:0px;word-spacing:0px;writing-mode:lr-tb;text-anchor:start;fill:#0d1f22;fill-opacity:1;stroke:none;stroke-width:0.75696939;"
       x="56.862347"
       y="257.8082"
       id="text5132"
       transform="scale(0.9938151,1.0062234)"><tspan
         sodipodi:role="line"
         id="tspan5130"
         x="56.862347"
         y="257.8082"
         style="font-style:normal;font-variant:normal;font-weight:normal;font-stretch:normal;font-size:30.27891731px;font-family:Chilanka;-inkscape-font-specification:'Chilanka, Normal';font-variant-ligatures:normal;font-variant-caps:normal;font-variant-numeric:normal;font-feature-settings:normal;text-align:start;letter-spacing:-1.57162499px;writing-mode:lr-tb;text-anchor:start;stroke-width:0.75696939;fill:#0d1f22;fill-opacity:1;">Critical Habitats</tspan></text>
    <path
       style="fill:#826131;stroke:#000000;stroke-width:0.26458332px;stroke-linecap:butt;stroke-linejoin:miter;stroke-opacity:1;fill-opacity:1"
       d="m 64.679226,227.50993 c 0,0 -10.423512,13.0962 -11.49259,16.83798 -1.069078,3.74177 -1.336349,11.75986 1.870885,15.23436 3.207234,3.47451 16.036173,5.07812 25.123335,5.07812 9.087165,0 11.759862,0.26727 17.372521,1.60362 5.612663,1.33635 16.570713,8.01808 37.417733,9.6217 20.84702,1.60362 25.12333,1.87089 25.12333,1.87089 0,0 -33.14142,5.34539 -47.3067,2.93996 -14.165285,-2.40542 -12.02713,-5.34539 -26.994222,-6.68173 -14.967095,-1.33635 -25.123335,-2.93997 -30.468726,-2.93997 -5.34539,0 45.168548,12.02713 16.837981,8.8199 -28.33057,-3.20724 -20.579756,-6.68174 -28.59784,-3.20724 -6.991828,1.98102 -12.421848,3.64819 -26.963014,7.95787 -3.511888,1.04085 4.433677,-5.21036 10.125033,-8.22514 9.039873,-4.78853 11.492589,-9.88897 11.492589,-9.88897 0,0 -20.847022,9.08716 -31.0032638,10.95805 l -10.156242,1.87089 c 0,0 22.9851788,-10.69078 32.6068818,-23.25245 9.621702,-12.56167 10.958052,-20.57976 12.561667,-33.94323 1.603619,-13.36348 1.336347,-13.36348 1.603619,-13.36348 h 0.267269 z"
       id="path5160"
       inkscape:connector-curvature="0"
       sodipodi:nodetypes="cscssscsssscsscscssscc" />
    <g
       id="g5261"
       style="fill:#436436;fill-opacity:1">
      <ellipse
         ry="21.114292"
         rx="32.473251"
         cy="198.91209"
         cx="47.173069"
         id="path5162"
         style="fill:#436436;fill-opacity:1;stroke:none;stroke-width:0.26458332" />
      <ellipse
         ry="21.114292"
         rx="32.473251"
         cy="214.41371"
         cx="36.883198"
         id="path5162-0"
         style="fill:#436436;fill-opacity:1;stroke:none;stroke-width:0.26458332" />
      <ellipse
         ry="21.114292"
         rx="32.473251"
         cy="195.97212"
         cx="84.991707"
         id="path5162-3"
         style="fill:#436436;fill-opacity:1;stroke:none;stroke-width:0.26458332" />
      <ellipse
         ry="21.114292"
         rx="32.473251"
         cy="211.47377"
         cx="87.129868"
         id="path5162-2"
         style="fill:#436436;fill-opacity:1;stroke:none;stroke-width:0.26458332" />
      <ellipse
         ry="21.114292"
         rx="32.473251"
         cy="201.58478"
         cx="161.96535"
         id="path5162-1"
         style="fill:#436436;fill-opacity:1;stroke:none;stroke-width:0.26458332" />
      <ellipse
         ry="21.114292"
         rx="32.473251"
         cy="210.40468"
         cx="143.25645"
         id="path5162-7"
         style="fill:#436436;fill-opacity:1;stroke:none;stroke-width:0.26458332" />
      <ellipse
         ry="21.114292"
         rx="32.473251"
         cy="207.19743"
         cx="65.748306"
         id="path5162-5"
         style="fill:#436436;fill-opacity:1;stroke:none;stroke-width:0.26458332" />
      <ellipse
         ry="21.114292"
         rx="32.473251"
         cy="194.10124"
         cx="126.15122"
         id="path5162-6"
         style="fill:#436436;fill-opacity:1;stroke:none;stroke-width:0.26458332" />
    </g>
  </g>
</svg>
