<?xml version="1.0" encoding="UTF-8" standalone="no"?>
<!-- Created with Inkscape (http://www.inkscape.org/) -->

<svg
   xmlns:dc="http://purl.org/dc/elements/1.1/"
   xmlns:cc="http://creativecommons.org/ns#"
   xmlns:rdf="http://www.w3.org/1999/02/22-rdf-syntax-ns#"
   xmlns:svg="http://www.w3.org/2000/svg"
   xmlns="http://www.w3.org/2000/svg"
   xmlns:sodipodi="http://sodipodi.sourceforge.net/DTD/sodipodi-0.dtd"
   xmlns:inkscape="http://www.inkscape.org/namespaces/inkscape"
   width="500"
   height="500"
   viewBox="0 0 132.29167 132.29167"
   version="1.1"
   id="svg5128"
   inkscape:version="0.92.4 (f8dce91, 2019-08-02)"
   sodipodi:docname="favicon.svg">
  <defs
     id="defs5122" />
  <sodipodi:namedview
     id="base"
     pagecolor="#ffffff"
     bordercolor="#666666"
     borderopacity="1.0"
     inkscape:pageopacity="0.0"
     inkscape:pageshadow="2"
     inkscape:zoom="0.98994949"
     inkscape:cx="179.03653"
     inkscape:cy="130.64893"
     inkscape:document-units="mm"
     inkscape:current-layer="layer1"
     showgrid="false"
     units="px"
     fit-margin-top="0"
     fit-margin-left="0"
     fit-margin-right="0"
     fit-margin-bottom="0"
     inkscape:window-width="1853"
     inkscape:window-height="1025"
     inkscape:window-x="67"
     inkscape:window-y="27"
     inkscape:window-maximized="1" />
  <metadata
     id="metadata5125">
    <rdf:RDF>
      <cc:Work
         rdf:about="">
        <dc:format>image/svg+xml</dc:format>
        <dc:type
           rdf:resource="http://purl.org/dc/dcmitype/StillImage" />
        <dc:title></dc:title>
      </cc:Work>
    </rdf:RDF>
  </metadata>
  <g
     inkscape:label="Layer 1"
     inkscape:groupmode="layer"
     id="layer1"
     transform="translate(2.9957563,-152.60225)">
    <path
       style="fill:#826131;fill-opacity:1;stroke:#000000;stroke-width:0.28357223px;stroke-linecap:butt;stroke-linejoin:miter;stroke-opacity:1"
       d="m 47.311611,206.17491 c 0,0 -8.815786,17.78693 -9.719969,22.86892 -0.904183,5.08197 -1.13023,15.97194 1.582319,20.69091 2.712549,4.719 13.562749,6.89698 21.248304,6.89698 7.685558,0 9.946018,0.363 14.692978,2.17799 4.746965,1.815 14.014841,10.88996 31.646407,13.06794 17.63157,2.178 21.2483,2.541 21.2483,2.541 0,0 -28.029675,7.25998 -40.010096,3.99299 -11.980427,-3.26698 -10.172062,-7.25998 -22.830626,-9.07496 -12.658565,-1.815 -21.248304,-3.993 -25.769221,-3.993 -4.520914,0 38.201739,16.33495 14.240886,11.97897 -23.960853,-4.35599 -17.405527,-9.07497 -24.186899,-4.35599 -5.913408,2.69057 -10.505899,4.95488 -22.8042314,10.80817 -2.970214,1.41365 3.7498254,-7.07658 8.5633454,-11.17117 7.64556,-6.50366 9.719967,-13.43095 9.719967,-13.43095 0,0 -17.6315704,12.34195 -26.221311,14.88294 l -8.5897403,2.541 c 0,0 19.4399389,-14.51995 27.5775873,-31.58088 8.137648,-17.06094 9.267879,-27.9509 10.624152,-46.10083 C 29.68004,180.765 29.453991,180.765 29.68004,180.765 h 0.226045 z"
       id="path5160"
       inkscape:connector-curvature="0"
       sodipodi:nodetypes="cscssscsssscsscscssscc" />
    <ellipse
       style="fill:#436436;fill-opacity:1;stroke:none;stroke-width:0.26458332"
       id="path5945"
       cx="21.860308"
       cy="194.28955"
       rx="22.985178"
       ry="17.907059" />
    <ellipse
       style="fill:#436436;fill-opacity:1;stroke:none;stroke-width:0.26458332"
       id="path5945-3"
       cx="33.620171"
       cy="215.40384"
       rx="22.985178"
       ry="17.907059" />
    <ellipse
       style="fill:#436436;fill-opacity:1;stroke:none;stroke-width:0.26458332"
       id="path5945-7"
       cx="57.941696"
       cy="208.45483"
       rx="22.985178"
       ry="17.907059" />
    <ellipse
       style="fill:#436436;fill-opacity:1;stroke:none;stroke-width:0.26458332"
       id="path5945-8"
       cx="75.581482"
       cy="195.09137"
       rx="22.985178"
       ry="17.907059" />
    <ellipse
       style="fill:#436436;fill-opacity:1;stroke:none;stroke-width:0.26458332"
       id="path5945-2"
       cx="47.250916"
       cy="182.26242"
       rx="22.985178"
       ry="17.907059" />
    <ellipse
       style="fill:#436436;fill-opacity:1;stroke:none;stroke-width:0.26458332"
       id="path5945-1"
       cx="76.917831"
       cy="172.90799"
       rx="22.985178"
       ry="17.907059" />
    <ellipse
       style="fill:#436436;fill-opacity:1;stroke:none;stroke-width:0.26458332"
       id="path5945-0"
       cx="85.470451"
       cy="212.73116"
       rx="22.985178"
       ry="17.907059" />
    <ellipse
       style="fill:#436436;fill-opacity:1;stroke:none;stroke-width:0.26458332"
       id="path5945-5"
       cx="104.98113"
       cy="189.21143"
       rx="22.985178"
       ry="17.907059" />
    <ellipse
       style="fill:#436436;fill-opacity:1;stroke:none;stroke-width:0.26458332"
       id="path5945-85"
       cx="67.830666"
       cy="226.62915"
       rx="22.985178"
       ry="17.907059" />
  </g>
</svg>
